<svg width="101" height="60" viewBox="0 0 101 60" fill="none" xmlns="http://www.w3.org/2000/svg">
<g clip-path="url(#clip0_1_14)">
<g filter="url(#filter0_d_1_14)">
<path d="M8.5 37.5C8.5 43.0228 12.9772 47.5 18.5 47.5H37.9C42.5326 47.5 46.3 49.7425 46.3 52.5C46.3 53.8807 47.4193 55 48.8 55H52.2C53.5807 55 54.7 53.8807 54.7 52.5C54.7 49.7425 58.4674 47.5 63.1 47.5H82.5C88.0229 47.5 92.5 43.0228 92.5 37.5V15C92.5 9.47715 88.0228 5 82.5 5H63.1C60.8283 5 58.6629 5.27118 56.6873 5.76128C52.7217 6.74503 48.2783 6.74503 44.3127 5.76128C42.3371 5.27118 40.1717 5 37.9 5H18.5C12.9771 5 8.5 9.47715 8.5 15V37.5ZM54.7 15C54.7 12.2425 58.4674 10 63.1 10H74.1C79.6228 10 84.1 14.4772 84.1 20V32.5C84.1 38.0228 79.6228 42.5 74.1 42.5H63.1C58.9156 42.5 54.7 39.4899 54.7 35.3055V15ZM16.9 20C16.9 14.4772 21.3772 10 26.9 10H37.9C42.5326 10 46.3 12.2425 46.3 15V35.3055C46.3 39.4899 42.0844 42.5 37.9 42.5H26.9C21.3772 42.5 16.9 38.0228 16.9 32.5V20Z" fill="#F2501B"/>
<path d="M8 37.5C8 43.299 12.701 48 18.5 48H37.9C40.1417 48 42.1502 48.5436 43.5815 49.3956C45.0237 50.2541 45.8 51.3683 45.8 52.5C45.8 54.1569 47.1431 55.5 48.8 55.5H52.2C53.8568 55.5 55.2 54.1569 55.2 52.5C55.2 51.3683 55.9763 50.2541 57.4185 49.3956C58.8498 48.5436 60.8583 48 63.1 48H82.5C88.299 48 93 43.299 93 37.5V15C93 9.20101 88.299 4.5 82.5 4.5H63.1C60.789 4.5 58.5831 4.77583 56.5669 5.27599C52.6804 6.24013 48.3196 6.24013 44.4331 5.27599C42.4169 4.77583 40.211 4.5 37.9 4.5H18.5C12.701 4.5 8 9.20101 8 15V37.5ZM55.2 15C55.2 13.8683 55.9763 12.7541 57.4185 11.8956C58.8498 11.0436 60.8583 10.5 63.1 10.5H74.1C79.3467 10.5 83.6 14.7533 83.6 20V32.5C83.6 37.7467 79.3467 42 74.1 42H63.1C61.122 42 59.133 41.2866 57.6453 40.0832C56.161 38.8825 55.2 37.2176 55.2 35.3055V15ZM17.4 20C17.4 14.7533 21.6533 10.5 26.9 10.5H37.9C40.1417 10.5 42.1502 11.0436 43.5815 11.8956C45.0237 12.7541 45.8 13.8683 45.8 15V35.3055C45.8 37.2176 44.839 38.8825 43.3547 40.0831C41.867 41.2866 39.878 42 37.9 42H26.9C21.6533 42 17.4 37.7467 17.4 32.5V20Z" stroke="black"/>
</g>
</g>
<rect x="2" y="14.5" width="97" height="23" rx="8.5" fill="#D3C5BC"/>
<rect x="2" y="14.5" width="97" height="23" rx="8.5" fill="url(#paint0_linear_1_14)" fill-opacity="0.8"/>
<rect x="2" y="14.5" width="97" height="23" rx="8.5" stroke="black"/>
<g filter="url(#filter1_d_1_14)">
<path d="M5.6039 27.5354C5.92386 27.8154 6.26031 28.0779 6.61325 28.3228C6.96619 28.5634 7.33068 28.7734 7.70671 28.9528C8.08604 29.1321 8.47361 29.2743 8.86943 29.3793C9.26855 29.4799 9.67427 29.5302 10.0866 29.5302C10.2449 29.5302 10.3966 29.5171 10.5418 29.4908C10.6902 29.4646 10.8189 29.423 10.9277 29.3661C11.0399 29.3049 11.1289 29.2262 11.1949 29.1299C11.2642 29.0293 11.2988 28.909 11.2988 28.769C11.2988 28.6422 11.2708 28.5153 11.2147 28.3885C11.1586 28.2572 11.0498 28.1325 10.8881 28.0144C10.7298 27.8963 10.5071 27.787 10.2202 27.6864C9.93321 27.5814 9.56047 27.4895 9.10198 27.4108C8.48846 27.3058 7.95574 27.1702 7.50385 27.0039C7.05195 26.8377 6.67757 26.6255 6.3807 26.3675C6.08384 26.1094 5.86284 25.7988 5.7177 25.4357C5.57257 25.0726 5.5 24.6417 5.5 24.143C5.5 23.6662 5.58081 23.2397 5.74244 22.8635C5.90737 22.4829 6.14321 22.1614 6.44997 21.899C6.75673 21.6365 7.12947 21.4353 7.56817 21.2953C8.00687 21.1553 8.50165 21.0853 9.0525 21.0853C9.2801 21.0853 9.50935 21.1028 9.74024 21.1378C9.97114 21.1684 10.1987 21.2122 10.423 21.269C10.6473 21.3259 10.8667 21.3937 11.0811 21.4724C11.2955 21.5468 11.4967 21.6255 11.6847 21.7087L12.6545 21H13.3323V24.1496C12.9794 23.874 12.6231 23.6312 12.2636 23.4213C11.9074 23.2113 11.5528 23.0363 11.1998 22.8963C10.8502 22.752 10.5071 22.6448 10.1707 22.5748C9.83755 22.5004 9.51924 22.4633 9.21578 22.4633C9.01787 22.4633 8.8381 22.4829 8.67647 22.5223C8.51814 22.5617 8.3829 22.6142 8.27075 22.6798C8.1619 22.7454 8.07779 22.8241 8.01842 22.916C7.95904 23.0035 7.92936 23.0976 7.92936 23.1982C7.92936 23.3425 7.95904 23.4738 8.01842 23.5919C8.07779 23.7056 8.19324 23.8128 8.36476 23.9134C8.53628 24.014 8.77708 24.1124 9.08714 24.2087C9.3972 24.3005 9.80291 24.4011 10.3043 24.5105C10.6374 24.5849 10.9557 24.6636 11.2592 24.7467C11.5627 24.8298 11.8447 24.9304 12.1053 25.0486C12.3659 25.1623 12.6001 25.3001 12.8079 25.4619C13.019 25.6238 13.1987 25.8185 13.3472 26.0459C13.4956 26.2734 13.6094 26.5402 13.6886 26.8465C13.771 27.1527 13.8123 27.5092 13.8123 27.916C13.8123 28.4584 13.7133 28.9243 13.5154 29.3136C13.3175 29.703 13.0503 30.0223 12.7139 30.2717C12.3774 30.521 11.9849 30.7047 11.5363 30.8228C11.091 30.9409 10.6209 31 10.1262 31C9.66438 31 9.19764 30.9344 8.72595 30.8031C8.25426 30.6763 7.80236 30.4685 7.37026 30.1798L6.57861 30.836H5.6039V27.5354Z" fill="black"/>
<path d="M15.3609 22.8241L14.124 21.3346H18.7205L18.0921 22.8832L19.2301 28.3622L20.185 22.8701L19.517 21.3346H23.6682L23.025 22.9226L24.0789 28.4278L25.1031 22.916L24.4648 21.3346H27.8244L26.7111 22.6732L24.9101 30.7441H22.1443L21.1795 25.6063L20.3582 30.7441H17.4439L15.3609 22.8241Z" fill="black"/>
<path d="M28.9772 23.0013L27.8293 21.3346H31.5352V29.0774L32.6831 30.7441H28.9772V23.0013Z" fill="black"/>
<path d="M34.6721 29.0774V23.0013L33.1383 21.3346C33.4549 21.3303 33.7914 21.3259 34.1476 21.3215C34.5038 21.3171 34.8617 21.315 35.2213 21.315C35.5841 21.3106 35.9404 21.3062 36.29 21.3018C36.6396 21.2975 36.9645 21.2953 37.2647 21.2953C37.5649 21.2909 37.832 21.2887 38.0662 21.2887C38.3004 21.2887 38.4852 21.2887 38.6204 21.2887C38.9535 21.2887 39.29 21.304 39.6297 21.3346C39.9695 21.3609 40.296 21.4134 40.6094 21.4921C40.9228 21.5709 41.2163 21.6802 41.4901 21.8202C41.7639 21.9558 42.0014 22.1352 42.2026 22.3583C42.4038 22.5814 42.5621 22.8504 42.6776 23.1654C42.7963 23.4803 42.8557 23.8521 42.8557 24.2808C42.8557 24.7445 42.8046 25.1492 42.7023 25.4948C42.6034 25.836 42.4582 26.129 42.2669 26.374C42.0756 26.6146 41.843 26.8115 41.5693 26.9646C41.2988 27.1177 40.9904 27.238 40.644 27.3255C40.2977 27.4129 39.9184 27.4742 39.506 27.5092C39.097 27.5398 38.66 27.5551 38.1949 27.5551C38.0695 27.5551 37.9277 27.5529 37.7694 27.5486C37.611 27.5442 37.4478 27.5376 37.2796 27.5289V29.0774L39.3131 30.7441H33.1333L34.6721 29.0774ZM37.903 26.0919C38.312 26.0919 38.6534 26.0678 38.9272 26.0197C39.2009 25.9672 39.4203 25.8753 39.5852 25.7441C39.7501 25.6129 39.8672 25.4335 39.9365 25.206C40.0058 24.9786 40.0404 24.6877 40.0404 24.3333C40.0404 23.979 39.9942 23.6947 39.9019 23.4803C39.8095 23.266 39.6759 23.1019 39.5011 22.9882C39.3263 22.8701 39.1119 22.7935 38.8579 22.7585C38.6072 22.7235 38.3219 22.706 38.0019 22.706H37.2796V26.0919H37.903Z" fill="black"/>
<path d="M44.7457 29.0774V23.0013L43.3554 21.3346H52.3455L52.2466 24.5892L50.2724 22.8373H47.3532V25.0092H50.3318V26.4528H47.3532V29.2415H50.2724L52.296 27.6404V30.7441H43.3554L44.7457 29.0774Z" fill="black"/>
<path d="M54.5126 29.0774V23.185L52.9887 21.3346H56.7688L60.7567 26.0591V23.0013L59.3714 21.3346H63.3444L62.1025 23.0013V30.7441H60.7567L55.8584 24.8123V29.0774L57.3477 30.7441H53.1718L54.5126 29.0774Z" fill="black"/>
<path d="M64.9623 29.0774V23.0013L63.572 21.3346H72.5621L72.4632 24.5892L70.489 22.8373H67.5698V25.0092H70.5484V26.4528H67.5698V29.2415H70.489L72.5126 27.6404V30.7441H63.572L64.9623 29.0774Z" fill="black"/>
<path d="M74.2196 22.8241L72.9827 21.3346H77.5792L76.9508 22.8832L78.0888 28.3622L79.0437 22.8701L78.3758 21.3346H82.5269L81.8837 22.9226L82.9376 28.4278L83.9618 22.916L83.3235 21.3346H86.6831L85.5698 22.6732L83.7688 30.7441H81.003L80.0382 25.6063L79.2169 30.7441H76.3026L74.2196 22.8241Z" fill="black"/>
<path d="M87.2916 27.5354C87.6116 27.8154 87.948 28.0779 88.301 28.3228C88.6539 28.5634 89.0184 28.7734 89.3944 28.9528C89.7738 29.1321 90.1614 29.2743 90.5572 29.3793C90.9563 29.4799 91.362 29.5302 91.7743 29.5302C91.9327 29.5302 92.0844 29.5171 92.2295 29.4908C92.378 29.4646 92.5066 29.423 92.6154 29.3661C92.7276 29.3049 92.8167 29.2262 92.8826 29.1299C92.9519 29.0293 92.9865 28.909 92.9865 28.769C92.9865 28.6422 92.9585 28.5153 92.9024 28.3885C92.8463 28.2572 92.7375 28.1325 92.5759 28.0144C92.4175 27.8963 92.1949 27.787 91.9079 27.6864C91.6209 27.5814 91.2482 27.4895 90.7897 27.4108C90.1762 27.3058 89.6435 27.1702 89.1916 27.0039C88.7397 26.8377 88.3653 26.6255 88.0684 26.3675C87.7716 26.1094 87.5506 25.7988 87.4054 25.4357C87.2603 25.0726 87.1877 24.6417 87.1877 24.143C87.1877 23.6662 87.2686 23.2397 87.4302 22.8635C87.5951 22.4829 87.8309 22.1614 88.1377 21.899C88.4445 21.6365 88.8172 21.4353 89.2559 21.2953C89.6946 21.1553 90.1894 21.0853 90.7402 21.0853C90.9678 21.0853 91.1971 21.1028 91.428 21.1378C91.6589 21.1684 91.8865 21.2122 92.1108 21.269C92.3351 21.3259 92.5544 21.3937 92.7688 21.4724C92.9832 21.5468 93.1844 21.6255 93.3725 21.7087L94.3422 21H95.0201V24.1496C94.6671 23.874 94.3109 23.6312 93.9513 23.4213C93.5951 23.2113 93.2405 23.0363 92.8876 22.8963C92.5379 22.752 92.1949 22.6448 91.8584 22.5748C91.5253 22.5004 91.207 22.4633 90.9035 22.4633C90.7056 22.4633 90.5258 22.4829 90.3642 22.5223C90.2059 22.5617 90.0706 22.6142 89.9585 22.6798C89.8496 22.7454 89.7655 22.8241 89.7062 22.916C89.6468 23.0035 89.6171 23.0976 89.6171 23.1982C89.6171 23.3425 89.6468 23.4738 89.7062 23.5919C89.7655 23.7056 89.881 23.8128 90.0525 23.9134C90.224 24.014 90.4648 24.1124 90.7749 24.2087C91.0849 24.3005 91.4907 24.4011 91.992 24.5105C92.3252 24.5849 92.6435 24.6636 92.9469 24.7467C93.2504 24.8298 93.5324 24.9304 93.793 25.0486C94.0536 25.1623 94.2878 25.3001 94.4956 25.4619C94.7067 25.6238 94.8865 25.8185 95.0349 26.0459C95.1833 26.2734 95.2971 26.5402 95.3763 26.8465C95.4588 27.1527 95.5 27.5092 95.5 27.916C95.5 28.4584 95.401 28.9243 95.2031 29.3136C95.0052 29.703 94.738 30.0223 94.4016 30.2717C94.0651 30.521 93.6726 30.7047 93.224 30.8228C92.7787 30.9409 92.3087 31 91.8139 31C91.3521 31 90.8854 30.9344 90.4137 30.8031C89.942 30.6763 89.4901 30.4685 89.058 30.1798L88.2663 30.836H87.2916V27.5354Z" fill="black"/>
</g>
<defs>
<filter id="filter0_d_1_14" x="3.5" y="4" width="94" height="60" filterUnits="userSpaceOnUse" color-interpolation-filters="sRGB">
<feFlood flood-opacity="0" result="BackgroundImageFix"/>
<feColorMatrix in="SourceAlpha" type="matrix" values="0 0 0 0 0 0 0 0 0 0 0 0 0 0 0 0 0 0 127 0" result="hardAlpha"/>
<feOffset dy="4"/>
<feGaussianBlur stdDeviation="2"/>
<feComposite in2="hardAlpha" operator="out"/>
<feColorMatrix type="matrix" values="0 0 0 0 0 0 0 0 0 0 0 0 0 0 0 0 0 0 0.25 0"/>
<feBlend mode="normal" in2="BackgroundImageFix" result="effect1_dropShadow_1_14"/>
<feBlend mode="normal" in="SourceGraphic" in2="effect1_dropShadow_1_14" result="shape"/>
</filter>
<filter id="filter1_d_1_14" x="0.5" y="21" width="100" height="20" filterUnits="userSpaceOnUse" color-interpolation-filters="sRGB">
<feFlood flood-opacity="0" result="BackgroundImageFix"/>
<feColorMatrix in="SourceAlpha" type="matrix" values="0 0 0 0 0 0 0 0 0 0 0 0 0 0 0 0 0 0 127 0" result="hardAlpha"/>
<feOffset dy="5"/>
<feGaussianBlur stdDeviation="2.5"/>
<feComposite in2="hardAlpha" operator="out"/>
<feColorMatrix type="matrix" values="0 0 0 0 0 0 0 0 0 0 0 0 0 0 0 0 0 0 0.15 0"/>
<feBlend mode="normal" in2="BackgroundImageFix" result="effect1_dropShadow_1_14"/>
<feBlend mode="normal" in="SourceGraphic" in2="effect1_dropShadow_1_14" result="shape"/>
</filter>
<linearGradient id="paint0_linear_1_14" x1="50.5" y1="15" x2="50.5" y2="33.0361" gradientUnits="userSpaceOnUse">
<stop stop-color="#B5AEAC"/>
<stop offset="1" stop-color="#B5AEAC" stop-opacity="0"/>
</linearGradient>
<clipPath id="clip0_1_14">
<rect width="100" height="60" fill="white" transform="translate(0.5)"/>
</clipPath>
</defs>
</svg>
