<svg width="10" height="12" viewBox="0 0 10 12" fill="none" xmlns="http://www.w3.org/2000/svg">
<path fill-rule="evenodd" clip-rule="evenodd" d="M0.125 3.1875C0.125 2.87684 0.381778 2.625 0.698529 2.625H9.30147C9.61822 2.625 9.875 2.87684 9.875 3.1875C9.875 3.49816 9.61822 3.75 9.30147 3.75H0.698529C0.381778 3.75 0.125 3.49816 0.125 3.1875Z" fill="#818181"/>
<path fill-rule="evenodd" clip-rule="evenodd" d="M4.04409 1.875C3.94269 1.875 3.84543 1.91451 3.77373 1.98483C3.70202 2.05516 3.66174 2.15054 3.66174 2.25V3.1875C3.66174 3.49816 3.40496 3.75 3.08821 3.75C2.77146 3.75 2.51468 3.49816 2.51468 3.1875V2.25C2.51468 1.85217 2.67581 1.47064 2.96263 1.18934C3.24945 0.908035 3.63847 0.75 4.04409 0.75H5.95586C6.36148 0.75 6.75049 0.908035 7.03731 1.18934C7.32413 1.47064 7.48527 1.85217 7.48527 2.25V3.1875C7.48527 3.49816 7.22849 3.75 6.91174 3.75C6.59499 3.75 6.33821 3.49816 6.33821 3.1875V2.25C6.33821 2.15054 6.29793 2.05516 6.22622 1.98483C6.15452 1.91451 6.05726 1.875 5.95586 1.875H4.04409ZM1.65439 2.625C1.97114 2.625 2.22792 2.87684 2.22792 3.1875V9.75C2.22792 9.84946 2.2682 9.94484 2.3399 10.0152C2.41161 10.0855 2.50886 10.125 2.61027 10.125H7.38968C7.49109 10.125 7.58834 10.0855 7.66004 10.0152C7.73175 9.94484 7.77203 9.84946 7.77203 9.75V3.1875C7.77203 2.87684 8.02881 2.625 8.34556 2.625C8.66231 2.625 8.91909 2.87684 8.91909 3.1875V9.75C8.91909 10.1478 8.75796 10.5294 8.47114 10.8107C8.18432 11.092 7.79531 11.25 7.38968 11.25H2.61027C2.20464 11.25 1.81563 11.092 1.52881 10.8107C1.24199 10.5294 1.08086 10.1478 1.08086 9.75V3.1875C1.08086 2.87684 1.33763 2.625 1.65439 2.625Z" fill="#818181"/>
<path fill-rule="evenodd" clip-rule="evenodd" d="M4.0441 4.96875C4.36085 4.96875 4.61762 5.22059 4.61762 5.53125V8.34375C4.61762 8.65441 4.36085 8.90625 4.0441 8.90625C3.72734 8.90625 3.47057 8.65441 3.47057 8.34375V5.53125C3.47057 5.22059 3.72734 4.96875 4.0441 4.96875Z" fill="#818181"/>
<path fill-rule="evenodd" clip-rule="evenodd" d="M5.9559 4.96875C6.27265 4.96875 6.52943 5.22059 6.52943 5.53125V8.34375C6.52943 8.65441 6.27265 8.90625 5.9559 8.90625C5.63915 8.90625 5.38237 8.65441 5.38237 8.34375V5.53125C5.38237 5.22059 5.63915 4.96875 5.9559 4.96875Z" fill="#818181"/>
</svg>
